<svg id="burger" width="40.434" height="31.607" viewBox="0 0 40.434 31.607"><defs><clipPath id="clip-path"><rect id="Rectangle_384" data-name="Rectangle 384" width="40.434" height="31.607"></rect></clipPath></defs><g id="Group_842" data-name="Group 842" clip-path="url(#clip-path)"><path id="Path_1011" data-name="Path 1011" d="M1.227,12.743C1.232,6.054,9.7-.006,20.145,0S39.054,6.053,39.052,12.743c-12.434-.012-29.453-.019-37.825,0M38.811,26,1.484,25.984a5.037,5.037,0,0,0-.106,1.068c0,4.622,8.4,4.552,18.769,4.555s18.769.083,18.774-4.54A4.926,4.926,0,0,0,38.811,26m.8-11.5H.78v1.386a26.221,26.221,0,0,1,8.24.685,23.317,23.317,0,0,1,6.274,2.989,52.594,52.594,0,0,1,9.992-2.782c6.382-1.124,14.323.073,14.323.073Zm-.124,4.092c-1-.141-8.276-1.107-14.2-.053a52.861,52.861,0,0,0-10,2.775A23.133,23.133,0,0,0,9.02,18.326a19.493,19.493,0,0,0-4.1-.684H3.13A3.206,3.206,0,0,0,.006,20.914L0,20.93a3.222,3.222,0,0,0,3.126,3.294H37.3a3.2,3.2,0,0,0,3.135-3.272l0-.021a3.31,3.31,0,0,0-.95-2.339" transform="translate(0 0)"></path></g></svg>