<svg id="Click_Collect" data-name="Click &amp; Collect" xmlns="http://www.w3.org/2000/svg" xmlns:xlink="http://www.w3.org/1999/xlink" width="54.557" height="57.201" viewBox="0 0 54.557 57.201">
  <g id="Group_285" data-name="Group 285">
    <path id="Path_401" data-name="Path 401" d="M53.133,41.77,48.39,33.694a3.108,3.108,0,0,0-3.92-1.387,2.524,2.524,0,0,0-1.362,2.236l-.024-.042a3.283,3.283,0,0,0-2.758-1.64V11.072a.957.957,0,0,0-.96-.955H29.923V4.624a.951.951,0,0,0-.281-.675L25.952.28A.963.963,0,0,0,25.274,0H14.823a.966.966,0,0,0-.679.28l-3.46,3.441A.951.951,0,0,0,10.4,4.4v5.721H.96a.957.957,0,0,0-.96.955V41.811a8.443,8.443,0,0,0,8.458,8.411H25.1a3.4,3.4,0,0,0,1.31,1.052l10.766,4.871a10.566,10.566,0,0,0,9.116.044l3.82-1.9a7.774,7.774,0,0,0,4.2-5.31,9.814,9.814,0,0,0-1.176-7.212M28,10.117H26.234V3.26L28,5.019ZM24.313,3.441h-8.53V1.91h8.53Zm-8.53,1.91h8.53v4.766h-8.53Zm-3.46-.56,1.54-1.532v6.857h-1.54ZM1.92,41.811V12.027H38.405V33.744A2.606,2.606,0,0,0,37.8,35.35l-.049-.084a3.108,3.108,0,0,0-3.919-1.387,2.523,2.523,0,0,0-1.363,2.236L27.4,27.393A3.517,3.517,0,0,0,25.632,25.9a2.914,2.914,0,0,0-2.215.078A2.652,2.652,0,0,0,22.5,29.77L32.42,46.838a.357.357,0,0,1,0,.431.323.323,0,0,1-.4.091L28,45.969a2.667,2.667,0,0,0-3.313,1.215,2.636,2.636,0,0,0-.256,1.129H8.458a6.527,6.527,0,0,1-6.538-6.5" transform="translate(0 0)" fill="#fff" />
    <path id="Path_402" data-name="Path 402" d="M19.351,18.806a1.173,1.173,0,0,0-.073-.112.847.847,0,0,0-1.2-.224.932.932,0,0,0-.091,1.272l3.783,5.078a.444.444,0,0,0,.571.15.46.46,0,0,0,.134-.633Z" transform="translate(-0.709 -0.826)" fill="#fff" />
    <path id="Path_403" data-name="Path 403" d="M28.243,23.512a.358.358,0,0,0,.468-.286l.982-5.3a1.031,1.031,0,0,0,.015-.157,1.007,1.007,0,0,0-.843-1.013.779.779,0,0,0-.868.8l-.078,5.5a.477.477,0,0,0,.324.456" transform="translate(-1.113 -0.755)" fill="#fff" />
    <path id="Path_404" data-name="Path 404" d="M20.83,36.114,15.615,37.5a.759.759,0,0,0-.115.042.872.872,0,0,0-.359,1.189.9.9,0,0,0,1.154.5l4.89-2.214a.447.447,0,0,0,.214-.555.491.491,0,0,0-.569-.352" transform="translate(-0.6 -1.629)" fill="#fff" />
    <path id="Path_405" data-name="Path 405" d="M19.392,30.382a.434.434,0,0,0-.277-.488l-4.736-1.6a.888.888,0,0,0-.173-.039.78.78,0,0,0-.866.81,1.01,1.01,0,0,0,.848,1.011l4.847.567a.324.324,0,0,0,.358-.265" transform="translate(-0.532 -1.275)" fill="#fff" />
    <path id="Path_406" data-name="Path 406" d="M34.221,28.5l4.144-2.866a.752.752,0,0,0,.112-.1.957.957,0,0,0-.041-1.29.823.823,0,0,0-1.21-.085l-3.536,3.651a.437.437,0,0,0-.028.54.4.4,0,0,0,.559.144" transform="translate(-1.339 -1.08)" fill="#fff" />
  </g>
</svg>
