<svg id="fingerfood" width="44.154" height="41.543" viewBox="0 0 44.154 41.543"><g id="Group_2181" data-name="Group 2181"><g id="Group_2180" data-name="Group 2180"><g id="Group_2179" data-name="Group 2179"><g id="Group_2175" data-name="Group 2175" opacity="0.94"><g id="Group_2174" data-name="Group 2174"><g id="Group_2173" data-name="Group 2173"><path id="Path_1571" data-name="Path 1571" d="M17.013,24.8c-1.212,0-2.052,1.365-2.052,2.829s.84,2.828,2.052,2.828,2.052-1.365,2.052-2.828-.84-2.829-2.052-2.829"></path></g></g></g><g id="Group_2178" data-name="Group 2178" opacity="0.94"><g id="Group_2177" data-name="Group 2177"><g id="Group_2176" data-name="Group 2176"><path id="Path_1572" data-name="Path 1572" d="M24.961,36.654l-.1-.264-.18-.537-.113-.49c-.053-.239-.093-.484-.128-.729a9.6,9.6,0,0,1-.092-1.312c0-2.362,1.583-2.089,1.772-2.089h.74A3.488,3.488,0,0,1,29.653,28.4l1.424-15.246S26.61,18.589,17.29,18.585c-9.215,0-13.821-5.449-13.821-5.449l2.626,28.39,22.329.012.06-.641a8.741,8.741,0,0,1-3.523-4.243m-5.875-2.305a10.9,10.9,0,0,1-3.267-1.034,3.339,3.339,0,0,0-2.6.156l-.554-.928A4.293,4.293,0,0,1,14.5,31.6a4.694,4.694,0,0,1-2.026-3.976,4.547,4.547,0,1,1,9.086,0,4.657,4.657,0,0,1-3.092,4.5,3.594,3.594,0,0,0,3.459-.218l.152.105a2.732,2.732,0,0,1-2.99,2.337"></path></g></g></g><path id="Path_1573" data-name="Path 1573" d="M26.641,36.042a8.477,8.477,0,0,0,2.665,3.5,9.273,9.273,0,0,0,5.784,2,9.064,9.064,0,0,0,8.45-5.5Z"></path><path id="Path_1574" data-name="Path 1574" d="M43.706,32.527H42.1a1.55,1.55,0,0,0-.4-.861,1.746,1.746,0,0,0-.873-.477,2.092,2.092,0,0,0-.653-1.4,2.474,2.474,0,0,0-1.419-.6,1.948,1.948,0,0,0-1.2-1.338.993.993,0,0,1-.456-1.327c.007-.015.015-.029.023-.044a.441.441,0,0,0-.047-.444.424.424,0,0,0-.36-.186.108.108,0,0,0-.047.007,3.182,3.182,0,0,0-1.693.689,3.15,3.15,0,0,0-1.033,1.5,1.976,1.976,0,0,0-1.266.053,2.725,2.725,0,0,0-1.333,1.285,3.977,3.977,0,0,0-2.039.788,2.006,2.006,0,0,0-.54.616,2.5,2.5,0,0,0-.253,1.736H26.468a.438.438,0,0,0-.44.436h0a8.61,8.61,0,0,0,.107,1.312c.027.152.053.3.087.444H43.96c.033-.146.06-.292.087-.444a8.61,8.61,0,0,0,.107-1.312.44.44,0,0,0-.443-.437h0"></path><path id="Path_1575" data-name="Path 1575" d="M11.05,12.452c0,.689.294.769.428,1.343a10.282,10.282,0,0,1-.025,2.027,1.562,1.562,0,0,0,.226.709,19.5,19.5,0,0,0,5.335.776c.025-.443,0-2.217,0-2.83s.538-1.69.538-2.3-.5-1.56-.5-2.4.217-2.477.217-3.741.9-2.08.882-3.229-1.242-.663-1.78-.663-1.135-.983-2.211-1.022-1.546.613-1.412,1.073a4.54,4.54,0,0,1-1.031,3.025c-.762.728.18,2.26.449,3.1s-.224,1.111-.561,1.608a6.113,6.113,0,0,0-.56,2.528"></path><path id="Path_1576" data-name="Path 1576" d="M5.024,12.127c0,.391.006.677.011.863a18.112,18.112,0,0,0,6.046,3.363c-.061-.133-.131-.287-.213-.479-.262-.613-.012-1.045-.012-1.6,0-.69-.861-1.663-.916-1.934-.08-.4-.521-1.456-.521-1.685s.1-1.437.1-1.9S8.44,7.608,8.357,7.225A19.349,19.349,0,0,1,8.357,5c0-.843-1.383-1.6-1.75-1.225-.541.555-2.166.229-2.583.612s-.583,2.6-.583,3.14.833,1.992.833,2.834.75,1.073.75,1.762"></path><path id="Path_1577" data-name="Path 1577" d="M17.711,17.307a19.848,19.848,0,0,0,5.208-.782,6.845,6.845,0,0,0,.311-.909,14.209,14.209,0,0,0-.161-2.6c-.126-.964.61-2.087.538-3.259s.956-1.688,1.324-2.429a7.6,7.6,0,0,0,.876-2.168c.019-.513-.156-1.883-.165-2.027a1.764,1.764,0,0,0-1.555-.878c-.877.058-1-1.111-1.729-1.165s-1.71.936-1.622,1.387A3.049,3.049,0,0,1,19.6,5.315c-.887.724-.17,2.481-.151,2.8.064,1.032-.886,2.182-.852,2.742a13.364,13.364,0,0,1-.775,2.815,5.585,5.585,0,0,0-.177,1.751c.023.3.047,1.262.061,1.885"></path><path id="Path_1578" data-name="Path 1578" d="M30.827,5.9c-.34-.39-1.826-.242-2.263-.8-.3-.379-1.6.189-1.678.962a18.22,18.22,0,0,1-.2,2.037c-.109.343-1.141.875-1.182,1.3s-.054,1.537-.074,1.748-.51,1.143-.617,1.5c-.073.244-.932,1.056-.993,1.688a5.191,5.191,0,0,1-.193,1.9l-.055.1a17.808,17.808,0,0,0,5.587-3.043c.052-.3.112-.687.144-1.01.061-.632.693-.142.767-.914s.951-2.03,1-2.522.095-2.543-.245-2.933"></path></g></g></g></svg>