<svg id="kids" width="42.82" height="39.769" viewBox="0 0 42.82 39.769"><defs><clipPath id="clip-path"><rect id="Rectangle_381" data-name="Rectangle 381" width="42.82" height="39.769" fill="none"></rect></clipPath></defs><g id="Group_836" data-name="Group 836" clip-path="url(#clip-path)"><path id="Path_1002" data-name="Path 1002" d="M41.6,2.859a2.543,2.543,0,0,0-.009-.255c0-.027-.009-.045-.009-.071s-.009-.043-.009-.07-.009-.045-.009-.071-.009-.044-.009-.07-.009-.045-.018-.071-.009-.043-.018-.061-.008-.054-.017-.08-.009-.035-.018-.052c-.009-.035-.018-.062-.026-.089s-.009-.026-.009-.035c-.009-.035-.027-.07-.036-.105V1.817A2.877,2.877,0,0,0,39.156.027h-.009a.622.622,0,0,0-.124-.018h-.045A.29.29,0,0,0,38.89,0h-.142V.009H6.508c-.026,0-.062.009-.089.009H6.375c-.044.009-.08.009-.124.018H6.242A2.919,2.919,0,0,0,3.986,1.791V1.8c-.009.035-.026.071-.036.107,0,.016-.009.026-.009.035-.009.026-.018.062-.026.088s-.009.035-.018.052-.009.053-.018.08-.009.044-.018.062-.009.044-.017.071-.009.045-.009.07-.009.045-.009.071-.009.044-.009.07-.009.044-.009.071c0,.088-.009.168-.009.255V8.893H41.6ZM30.805,4.447a1.88,1.88,0,0,1-1.893,1.87H15.863a1.885,1.885,0,0,1-1.892-1.87V4.429a1.88,1.88,0,0,1,1.892-1.87h13.05a1.886,1.886,0,0,1,1.893,1.87Z" transform="translate(-1.294 0)"></path><path id="Path_1003" data-name="Path 1003" d="M42.678,20.869,40.67,15.558H2.453L.444,20.869Z" transform="translate(-0.151 -5.368)"></path><path id="Path_1004" data-name="Path 1004" d="M0,25.688V48.4a.135.135,0,0,0,.009.062.226.226,0,0,0,.213.168H42.6a.218.218,0,0,0,.214-.159.16.16,0,0,0,.009-.061V25.688Zm23.5,17.3c-1.462-.086-2.209-.629-3.774-1.18a3.91,3.91,0,0,0-3,.178l-.64-1.058A4.992,4.992,0,0,1,18.2,39.852a5.256,5.256,0,1,1,4.584.6,4.2,4.2,0,0,0,4-.248l.175.119A3.145,3.145,0,0,1,23.5,42.984" transform="translate(0 -8.864)"></path><path id="Path_1005" data-name="Path 1005" d="M30.784,35.466c-1.4,0-2.371,1.557-2.371,3.226s.971,3.226,2.371,3.226,2.372-1.557,2.372-3.226-.971-3.226-2.372-3.226" transform="translate(-9.674 -12.238)"></path></g></svg>