<svg id="new" width="45.127" height="41.538" viewBox="0 0 45.127 41.538"><defs><clipPath id="clip-path"><rect id="Rectangle_149" data-name="Rectangle 149" width="45.127" height="41.538"></rect></clipPath></defs><g id="Group_351" data-name="Group 351" clip-path="url(#clip-path)"><path id="Path_337" data-name="Path 337" d="M34.4.27l1.081,6.237a3.843,3.843,0,0,0,1.063,2.078l.012.013A3.855,3.855,0,0,0,38.62,9.649l6.236,1.081a.323.323,0,0,1,0,.638L38.62,12.448a3.8,3.8,0,0,0-3.141,3.141L34.4,21.827a.323.323,0,0,1-.638,0L32.678,15.59a3.843,3.843,0,0,0-1.063-2.078L31.6,13.5a3.857,3.857,0,0,0-2.065-1.051L23.3,11.367a.323.323,0,0,1,0-.638l6.237-1.081a3.8,3.8,0,0,0,3.141-3.141L33.761.27a.323.323,0,0,1,.638,0ZM28.1,25.188l.8,4.645a2.746,2.746,0,0,0,2.272,2.272l4.645.8a.323.323,0,0,1,0,.638l-4.645.8A2.746,2.746,0,0,0,28.9,36.624l-.8,4.645a.323.323,0,0,1-.638,0l-.8-4.645a2.746,2.746,0,0,0-2.272-2.272l-4.645-.8a.323.323,0,0,1,0-.638l4.645-.8a2.746,2.746,0,0,0,2.272-2.272l.8-4.645a.323.323,0,0,1,.638,0ZM15.233,6.168,16.7,14.654a5.282,5.282,0,0,0,4.369,4.369l8.486,1.471a.323.323,0,0,1,0,.638L21.073,22.6A5.282,5.282,0,0,0,16.7,26.972l-1.471,8.486a.323.323,0,0,1-.638,0l-1.471-8.486A5.283,5.283,0,0,0,8.755,22.6L.269,21.132a.323.323,0,0,1,0-.638l8.486-1.471a5.283,5.283,0,0,0,4.369-4.369L14.6,6.168a.323.323,0,0,1,.638,0Z" transform="translate(0.001 0)" fill-rule="evenodd"></path></g></svg>