<svg id="salad" width="53.004" height="36.03" viewBox="0 0 53.004 36.03"><g id="Group_851" data-name="Group 851"><path id="Path_1020" data-name="Path 1020" d="M46.823,21.513h9.028l-9.417-3.5A5.8,5.8,0,0,0,46.823,21.513Z" transform="translate(-18.577 -7.292)"></path><path id="Path_1021" data-name="Path 1021" d="M28.983,12.74a5.746,5.746,0,0,0-3.949,1.577,5.674,5.674,0,0,0-1.763,3.849,12.347,12.347,0,0,1,.892,1.212H34.621a5.621,5.621,0,0,0-1.252-4.633A5.7,5.7,0,0,0,28.983,12.74Z" transform="translate(-9.333 -5.157)"></path><path id="Path_1022" data-name="Path 1022" d="M68.015,18.638,70,19.377h7.016a10.407,10.407,0,0,0,3.264-6.638H77.462a10.559,10.559,0,0,0-9.447,5.9Z" transform="translate(-27.277 -5.157)"></path><path id="Path_1023" data-name="Path 1023" d="M24.14,5.686A7.642,7.642,0,0,1,30.728,9.46c.037-.106.063-.213.1-.318h0a.955.955,0,0,1,1.226-.551l11.367,4.223A12.363,12.363,0,0,1,47.916,7.7a5.674,5.674,0,0,0-2.852-4.128,5.743,5.743,0,0,0-5.031-.278,5.686,5.686,0,0,0-3.294,3.79.957.957,0,0,1-1.544.479,3.775,3.775,0,0,0-4.015-.595.958.958,0,0,1-.876-.056.947.947,0,0,1-.459-.744A6.629,6.629,0,0,0,26.466.856,6.71,6.71,0,0,0,20.145.728,6.631,6.631,0,0,0,16.554,5.9a.954.954,0,0,1-1.145.823,3.786,3.786,0,0,0-4.215,2.03,12.5,12.5,0,0,1,5.575,2.607,7.59,7.59,0,0,1,2.714-4.084A7.669,7.669,0,0,1,24.14,5.686Z" transform="translate(-4.489 0)"></path><path id="Path_1024" data-name="Path 1024" d="M5.41,42.533a6.65,6.65,0,0,0,2.439,3.228,6.719,6.719,0,0,0,3.869,1.229H40.941A6.678,6.678,0,0,0,46.957,43.2l.724-1.9.668-1.9.66-1.9L52.66,27.076H0Z" transform="translate(0 -10.96)"></path><path id="Path_1025" data-name="Path 1025" d="M13.506,21.312a10.553,10.553,0,0,0-8.074-3.793H2.613a10.366,10.366,0,0,0,1.112,3.793Z" transform="translate(-1.048 -7.091)"></path></g></svg>